<svg class="icon" viewBox="0 0 1024 1024" xmlns="http://www.w3.org/2000/svg" width="200" height="200"><path d="M544 648.256a64 64 0 1 1-64 0V568.64a64 64 0 1 1 64 0v79.616zm-280.704-389.12a256.128 256.128 0 0 1 497.408 0H832a128 128 0 0 1 128 128V832a128 128 0 0 1-128 128H192A128 128 0 0 1 64 832V387.072a128 128 0 0 1 128-128h71.296zm66.56 0h364.288a192.192 192.192 0 0 0-364.288 0zM192 323.072a64 64 0 0 0-64 64V832a64 64 0 0 0 64 64h640a64 64 0 0 0 64-64V387.072a64 64 0 0 0-64-64H192z" fill="#f0ebeb"/></svg>